<?xml version="1.0" encoding="UTF-8"?>
<svg width="35px" height="23px" viewBox="0 0 35 23" version="1.1" xmlns="http://www.w3.org/2000/svg" xmlns:xlink="http://www.w3.org/1999/xlink">
    <!-- Generator: Sketch 52.6 (67491) - http://www.bohemiancoding.com/sketch -->
    <title>Favicon</title>
    <desc>Created with Sketch.</desc>
    <g id="Page-1" stroke="none" stroke-width="1" fill="none" fill-rule="evenodd">
        <path d="M12.059204,6.69090909 C10.9105401,6.69090909 10.3521127,7.28378895 10.3521127,8.5040893 L10.3521127,8.55772888 C10.3521127,9.77762287 10.9105401,10.3709091 12.0957256,10.3709091 C13.2443895,10.3709091 13.8028169,9.77762287 13.8028169,8.55772888 L13.8028169,8.5040893 C13.8028169,7.28378895 13.2443895,6.69090909 12.059204,6.69090909 Z M18.2394366,14.3620014 C18.2394366,13.7009402 18.0970558,13.5490909 17.4775606,13.5490909 C16.82832,13.5490909 16.6784038,13.7088904 16.6784038,14.3620014 L16.6784038,14.4124853 C16.6784038,15.0783166 16.8140423,15.2218182 17.4418662,15.2218182 C18.1041947,15.2218182 18.2394366,15.0783166 18.2394366,14.4124853 L18.2394366,14.3620014 Z M19.8004695,14.4024515 L19.8004695,14.4536953 C19.8004695,15.9737939 18.9898881,16.8109091 17.5177932,16.8109091 C16.0105073,16.8109091 15.1995305,15.9737939 15.1995305,14.4536953 L15.1995305,14.4024515 C15.1995305,12.9031707 16.0314638,12.0436364 17.4822068,12.0436364 L17.5177932,12.0436364 C18.9681408,12.0436364 19.8000741,12.9031707 19.8004695,14.4024515 Z M31.2756901,12.3715287 C30.0751993,10.9264128 28.3595356,8.93842476 26.9857414,7.36 C27.1152254,8.18193729 27.1803622,9.07896117 27.1803622,10.0358134 L27.1803622,10.3425844 C27.1803622,12.510459 26.5234675,14.2117527 25.9960569,15.5793729 L25.9782923,15.6255491 C25.671952,16.4193791 25.4074571,17.1047953 25.4074571,17.593059 L25.4074571,17.6958513 C25.4074571,17.8974207 25.4011408,18.0993916 25.3873239,18.3097947 L25.394035,18.405761 C25.3928507,18.4615741 25.3774547,19.6464968 26.0461925,20.1118732 C26.555049,20.4640173 27.4811758,20.374877 28.6548224,19.8601122 C29.5094961,19.4854823 31.0230383,18.6619388 31.7545442,18.2037901 C32.8520005,17.5179724 33.3348023,17.0108367 33.4224409,16.4535094 L33.4228357,16.4531079 C33.557057,15.6078817 32.8547639,14.2727857 31.2756901,12.3715287 Z M25.6338028,10.3730361 L25.6338028,10.0658714 C25.6338028,4.20360918 23.144308,1.58909091 17.5623196,1.58909091 L17.3531483,1.58909091 C11.7727416,1.58909091 9.28403756,4.20320714 9.28403756,10.0654693 L9.28403756,10.372634 C9.28403756,12.0913893 9.72887264,13.4430747 10.1503786,14.5527273 C10.46117,13.9512634 10.8941429,13.4647853 11.4417843,13.1037462 C11.5271926,13.0225325 11.6608408,12.9216185 11.8261218,12.8142716 L12.1048851,12.6345562 C13.6086254,11.6607959 15.1534882,10.6605004 15.1534882,9.54079665 C15.1534882,9.48249969 15.1550699,9.42862526 15.1586285,9.37595696 L15.1582331,6.28782612 C15.1582331,4.78336243 15.9901736,3.92056738 17.4409291,3.92056738 C18.9272714,3.92056738 19.7592118,4.78336243 19.7592118,6.28782612 L19.7592118,9.54079665 C19.7592118,10.6625106 21.3084242,11.6656204 22.8066287,12.6357623 L23.0846012,12.8142716 C23.2396015,12.9143816 23.3716681,13.0124813 23.4768469,13.1057564 C24.0082766,13.4515177 24.4404586,13.930759 24.7540179,14.5257901 C25.1810596,13.3904064 25.6338028,12.0174125 25.6338028,10.3730361 Z M23.9084507,17.5978493 C23.9084507,15.9649097 23.496828,14.9107232 22.650231,14.3747509 C22.6043192,14.3436742 22.5639485,14.3146155 22.5279315,14.2786956 C22.5247652,14.2754669 22.479645,14.2302644 22.3094549,14.118469 L22.0355675,13.9392734 C20.1888065,12.7422148 18.2779273,11.5039897 18.2779273,9.52315234 L18.2779273,6.25808019 C18.2779273,5.5897292 18.1358383,5.43636364 17.5176127,5.43636364 C16.8625785,5.43636364 16.7200937,5.5897292 16.7200937,6.25808019 L16.7200937,9.39238802 C16.7200937,9.41579645 16.719698,9.43920488 16.7173232,9.46220971 C16.7165316,9.47512471 16.7149485,9.49853313 16.7149485,9.52315234 C16.7149485,11.5023753 14.8052567,12.7414076 12.9580999,13.939677 L12.6830251,14.1188726 C12.5401445,14.2137171 12.4772137,14.269413 12.4570284,14.2887855 C12.419824,14.3218801 12.3853902,14.3493245 12.3485817,14.3767689 C11.4988183,14.9236382 11.0915493,15.9749995 11.0915493,17.5982529 L11.0915493,17.7500041 C11.0915493,20.4443949 12.0849848,21.4945455 14.6350665,21.4945455 L14.736389,21.4945455 C15.7591131,21.4945455 16.5253646,21.311314 17.0782846,20.9351647 C17.2100831,20.8491993 17.3545468,20.8052076 17.4990105,20.8052076 C17.6430785,20.8052076 17.7922917,20.8504101 17.918549,20.9331468 C18.4746354,21.311314 19.2408869,21.4945455 20.2632152,21.4945455 L20.3645377,21.4945455 C22.8813729,21.4945455 23.9076591,20.4092823 23.9084507,17.7496005 L23.9084507,17.5978493 Z M9.61247446,18.4159997 L9.57177953,18.1800558 L9.59943628,18.1828695 C9.59113925,18.0164627 9.58679319,17.8544774 9.58679319,17.6924921 C9.58679319,17.1474497 9.31259627,16.4416279 8.99533384,15.6244663 C8.4678801,14.2630662 7.81399551,12.5744799 7.81399551,10.3316064 L7.81399551,10.0245176 C7.81399551,9.07390906 7.87879133,8.1811811 8.00759276,7.36 C6.63976892,8.93121729 4.92939648,10.9124222 3.72632785,12.362653 C2.14633722,14.2674876 1.44346067,15.6039669 1.57700327,16.448863 C1.66510977,17.0059638 2.1487078,17.513625 3.24668078,18.2009572 C3.98195524,18.6603845 5.49794024,19.4847812 6.35055833,19.8589954 C7.52518002,20.3746955 8.45207624,20.464732 8.95977516,20.1110172 C9.63815573,19.6387275 9.61286956,18.4280581 9.61247446,18.4159997 Z M34.9639578,16.7190016 C34.7557987,18.0261675 33.6971949,18.8510467 32.5843749,19.5471014 C31.8079335,20.0330113 30.1956899,20.9090177 29.2811354,21.3099839 C27.5608549,22.0668277 26.1686426,22.1014493 25.1967058,21.4138486 C25.0126868,21.2858293 24.8456847,21.1324477 24.6980738,20.9557166 C23.9061986,22.3128019 22.4482935,23 20.3587878,23 L20.2574784,23 C19.1410966,23 18.2356442,22.8148148 17.4936322,22.43438 C16.7532032,22.8148148 15.8477507,23 14.7309732,23 L14.6292681,23 C12.5437198,23 11.0870019,22.3148148 10.2939395,20.9621578 C10.1455371,21.136876 9.98130514,21.2882448 9.803618,21.4138486 C8.832077,22.1010467 7.43313709,22.0664251 5.71918837,21.3095813 C4.80265519,20.9086151 3.19001584,20.0326087 2.41436599,19.5466989 C1.3015459,18.8514493 0.243337898,18.0269726 0.0367617656,16.718599 C-0.181686559,15.3454106 0.56388707,13.7491948 2.52913051,11.3812399 C4.90831769,8.51207729 9.27016086,3.56884058 9.45457557,3.35990338 L9.5574679,3.2431562 C11.1297418,1.06119163 13.6937394,0 17.3887612,0 L17.5981075,0 C21.3228097,0 23.8974923,1.07689211 25.4650173,3.29146538 L25.5409994,3.35628019 C25.584135,3.40499195 30.0271048,8.43558776 32.4696103,11.3816425 C34.4340623,13.75 35.1800317,15.3466184 34.9639578,16.7190016 Z M24.4835681,8.5040893 L24.4835681,8.55772888 C24.4835681,9.77762287 23.9244189,10.3709091 22.7751004,10.3709091 C21.5916203,10.3709091 21.0328638,9.77762287 21.0328638,8.55772888 L21.0328638,8.5040893 C21.0328638,7.28378895 21.5916203,6.69090909 22.7413315,6.69090909 C23.9244189,6.69090909 24.4835681,7.28378895 24.4835681,8.5040893 Z" id="Favicon" fill="#273EAB"></path>
    </g>
</svg>