<?xml version="1.0" encoding="UTF-8"?>
<svg width="184px" height="39px" viewBox="0 0 184 39" version="1.1" xmlns="http://www.w3.org/2000/svg" xmlns:xlink="http://www.w3.org/1999/xlink">
    <!-- Generator: Sketch 52.6 (67491) - http://www.bohemiancoding.com/sketch -->
    <title>Logo-Sticky-Menu</title>
    <desc>Created with Sketch.</desc>
    <g id="Page-1" stroke="none" stroke-width="1" fill="none" fill-rule="evenodd">
        <g id="Logo-Sticky-Menu" fill="#273EAB">
            <path d="M75.7708737,33.2459016 C70.7246321,33.2459016 67.024055,29.4321488 67.024055,23.7303994 C67.024055,18.1419298 70.7620117,14.1771372 75.658735,14.1771372 C77.901509,14.1771372 79.8452465,15.0078556 81.190911,16.5937727 L81.2656701,16.5937727 L81.2656701,5.1147541 L86.1250138,5.1147541 L86.1250138,32.9060623 L81.4525679,32.9060623 L81.4525679,30.6404665 L81.4151884,30.6404665 C80.1442831,32.3019034 78.2379251,33.2459016 75.7708737,33.2459016 Z M76.7274589,28.744918 C79.425543,28.744918 81.5240529,26.7569836 81.5240529,23.7563279 C81.5240529,20.7931803 79.5379632,18.6177049 76.7274589,18.6177049 C74.1043215,18.6177049 72.043285,20.6056393 72.043285,23.7563279 C72.043285,26.6819672 73.9919014,28.744918 76.7274589,28.744918 Z M98.742938,33.2459016 C93.7314078,33.2459016 90.0288594,29.4200656 90.0288594,23.7002513 C90.0288594,18.0940756 93.7314078,14.1167213 98.6307396,14.1167213 C100.76251,14.1167213 102.707283,14.9500717 104.016265,16.5410135 L104.091063,16.5031339 L104.091063,14.3818783 L108.990395,14.3818783 L108.990395,32.9049856 L104.31546,32.9049856 L104.31546,30.7079708 L104.240661,30.6700912 C102.969079,32.3367921 101.136505,33.2459016 98.742938,33.2459016 Z M99.5980966,28.744918 C102.111631,28.744918 104.250011,26.7569836 104.250011,23.7563279 C104.250011,20.7931803 102.224177,18.6177049 99.5980966,18.6177049 C96.9345002,18.6177049 94.9086664,20.6056393 94.9086664,23.7563279 C94.9086664,26.6819672 96.8219539,28.744918 99.5980966,28.744918 Z M113.591356,32.8239344 L113.591356,14.3807344 L118.503855,14.3807344 L118.503855,17.0585814 L118.578855,17.0585814 C119.966355,15.1727737 121.953855,14.1167213 124.091355,14.1167213 L124.466355,14.1167213 L124.466355,19.5101315 C123.941355,19.4724154 123.453855,19.4724154 123.153855,19.4724154 C120.116355,19.4724154 118.503855,21.5090878 118.503855,24.3000833 L118.503855,32.8239344 L113.591356,32.8239344 Z M132.043322,32.8239344 L125.860585,14.3980328 L130.806775,14.3980328 L134.329062,25.6645861 L134.366533,25.6645861 L137.626522,14.3980328 L141.560991,14.3980328 L144.858451,25.6645861 L144.933393,25.6645861 L148.418209,14.3980328 L153.326927,14.3980328 L147.106719,32.8239344 L142.872481,32.8239344 L139.575021,21.6327426 L139.53755,21.6327426 L136.277561,32.8239344 L132.043322,32.8239344 Z M159.112984,11.8662295 C157.298805,11.8662295 155.975965,10.5138377 155.975965,8.82334793 C155.975965,7.1704246 157.298805,5.81803279 159.112984,5.81803279 C160.889368,5.81803279 162.250003,7.1704246 162.250003,8.82334793 C162.250003,10.5138377 160.889368,11.8662295 159.112984,11.8662295 Z M156.533658,32.8239344 L156.533658,14.3980328 L161.413465,14.3980328 L161.413465,32.8239344 L156.533658,32.8239344 Z M166.572118,32.8239344 L166.572118,14.3807344 L171.471372,14.3807344 L171.471372,16.7568522 L171.54617,16.7568522 C173.004727,15.021909 175.099064,14.1167213 177.380397,14.1167213 C181.269881,14.1167213 184,16.228826 184,21.8862493 L184,32.8239344 L179.100746,32.8239344 L179.100746,23.1308825 C179.100746,19.62328 177.866582,18.5295115 175.58525,18.5295115 C173.116923,18.5295115 171.471372,20.2644547 171.471372,23.5834763 L171.471372,32.8239344 L166.572118,32.8239344 Z" id="Logotipo"></path>
            <path d="M20.4787425,11.3454545 C18.5281002,11.3454545 17.579788,12.3507726 17.579788,14.4199775 L17.579788,14.5109316 C17.579788,16.5794475 18.5281002,17.5854545 20.5407629,17.5854545 C22.4914051,17.5854545 23.4397173,16.5794475 23.4397173,14.5109316 L23.4397173,14.4199775 C23.4397173,12.3507726 22.4914051,11.3454545 20.4787425,11.3454545 Z M30.9739122,24.3529589 C30.9739122,23.232029 30.7321235,22.9745455 29.6801068,22.9745455 C28.5775771,22.9745455 28.3229918,23.2455099 28.3229918,24.3529589 L28.3229918,24.438562 C28.3229918,25.5675804 28.5533309,25.8109091 29.6194912,25.8109091 C30.7442466,25.8109091 30.9739122,25.5675804 30.9739122,24.438562 L30.9739122,24.3529589 Z M33.6248326,24.4215482 L33.6248326,24.5084399 C33.6248326,27.0859984 32.2483166,28.5054545 29.7484293,28.5054545 C27.188781,28.5054545 25.8115935,27.0859984 25.8115935,24.5084399 L25.8115935,24.4215482 C25.8115935,21.8792894 27.2243689,20.4218182 29.6879969,20.4218182 L29.7484293,20.4218182 C32.2113857,20.4218182 33.6241611,21.8792894 33.6248326,24.4215482 Z M53.1118641,20.9778096 C51.0732103,18.5273956 48.1596983,15.1564594 45.8267436,12.48 C46.0466312,13.8737197 46.1572455,15.3947603 46.1572455,17.0172488 L46.1572455,17.5374256 C46.1572455,21.213387 45.0417177,24.0981894 44.1460776,26.4171975 L44.11591,26.4954963 C43.5956879,27.8415559 43.1465271,29.0037834 43.1465271,29.8317087 L43.1465271,30.0060088 C43.1465271,30.3478004 43.1358009,30.6902728 43.1123373,31.0470432 L43.1237339,31.2097687 C43.1217227,31.3044082 43.0955775,33.3136251 44.231217,34.1027414 C45.0953488,34.6998554 46.6680821,34.5487045 48.6611495,33.6758424 C50.1125424,33.0406004 52.682815,31.6441572 53.9250464,30.8672963 C55.7887286,29.704388 56.6086148,28.8444622 56.7574412,27.899429 L56.7581116,27.8987481 C56.9860439,26.4655385 55.7934214,24.2016801 53.1118641,20.9778096 Z M43.5309036,17.5890611 L43.5309036,17.0682167 C43.5309036,7.12785905 39.3032843,2.69454545 29.8240432,2.69454545 L29.4688319,2.69454545 C19.9922767,2.69454545 15.7660004,7.12717732 15.7660004,17.0675349 L15.7660004,17.5883794 C15.7660004,20.5027905 16.521412,22.7947789 17.2372065,24.6763636 C17.7649874,23.6564902 18.5002548,22.8315925 19.4302505,22.2193957 C19.5752895,22.0816856 19.8022487,21.9105704 20.0829261,21.7285476 L20.5563174,21.4238126 C23.1099445,19.7726539 25.7334052,18.0765007 25.7334052,16.1778726 C25.7334052,16.0790212 25.7360911,15.9876689 25.7421344,15.8983618 L25.741463,10.661966 C25.741463,8.1109189 27.1542506,6.6479186 29.6178998,6.6479186 C32.1419819,6.6479186 33.5547696,8.1109189 33.5547696,10.661966 L33.5547696,16.1778726 C33.5547696,18.0799093 36.1856165,19.7808347 38.7298429,21.4258578 L39.2018913,21.7285476 C39.4651103,21.8982992 39.6893836,22.0646422 39.8679965,22.2228044 C40.7704616,22.8090953 41.504386,23.6217218 42.0368673,24.6306875 C42.7620624,22.7054718 43.5309036,20.3773516 43.5309036,17.5890611 Z M40.600939,29.8398315 C40.600939,27.0709338 39.9019281,25.2834002 38.4642508,24.3745776 C38.3862842,24.3218823 38.3177274,24.2726088 38.256564,24.2117013 C38.251187,24.2062265 38.1745646,24.1295788 37.8855505,23.9400126 L37.4204394,23.6361593 C34.2843001,21.6063643 31.0392764,19.5067651 31.0392764,16.147954 L31.0392764,10.6115273 C31.0392764,9.47823647 30.7979833,9.21818182 29.7481227,9.21818182 C28.6357544,9.21818182 28.393789,9.47823647 28.393789,10.6115273 L28.393789,15.9262232 C28.393789,15.9659157 28.3931169,16.0056083 28.3890842,16.0446165 C28.3877399,16.0665158 28.3850514,16.1062084 28.3850514,16.147954 C28.3850514,19.5040277 25.1420441,21.6049956 22.0052327,23.6368436 L21.5381052,23.940697 C21.2954678,24.1015202 21.1885998,24.1959611 21.1543214,24.2288101 C21.0911415,24.2849272 21.0326666,24.3314633 20.9701589,24.3779994 C19.5271047,25.3052995 18.8354871,27.0880426 18.8354871,29.8405158 L18.8354871,30.0978331 C18.8354871,34.6665827 20.5225231,36.4472727 24.85303,36.4472727 L25.0250942,36.4472727 C26.7618675,36.4472727 28.0631031,36.1365759 29.002063,35.4987576 C29.2258809,35.3529901 29.4712068,35.2783955 29.7165327,35.2783955 C29.9611866,35.2783955 30.214578,35.3550432 30.4289862,35.4953358 C31.373323,36.1365759 32.6745587,36.4472727 34.4106598,36.4472727 L34.582724,36.4472727 C38.8567724,36.4472727 40.5995947,34.6070439 40.600939,30.0971487 L40.600939,29.8398315 Z M16.3237465,31.2271299 L16.254639,30.8270512 L16.3016053,30.8318221 C16.2875154,30.5496542 16.280135,30.2749834 16.280135,30.0003127 C16.280135,29.0761104 15.8144983,27.8792821 15.2757284,26.4936602 C14.3800151,24.1851992 13.2695991,21.3219442 13.2695991,17.5188109 L13.2695991,16.9980951 C13.2695991,15.3861936 13.3796342,13.8724375 13.5983627,12.48 C11.2755467,15.144238 8.37102027,18.5036724 6.32798885,20.9627594 C3.64487468,24.1926964 2.45126125,26.4589004 2.67804109,27.8915503 C2.82766211,28.8361995 3.64890036,29.6970162 5.51346007,30.8624926 C6.76209109,31.6415215 9.33651197,33.0394115 10.784414,33.6739486 C12.7791373,34.5483967 14.3531773,34.7010673 15.2153433,34.10129 C16.367358,33.300451 16.3244175,31.2475769 16.3237465,31.2271299 Z M59.3752198,28.3496114 C59.0217275,30.5661101 57.2240239,31.9648183 55.3342511,33.1450851 C54.0157112,33.9690191 51.2778255,35.4544213 49.7247441,36.1343205 C46.8033919,37.4176644 44.4391597,37.4763705 42.7886327,36.310439 C42.4761347,36.0933627 42.1925343,35.8332808 41.9418639,35.5336064 C40.5971145,37.8347511 38.1213239,39 34.5729596,39 L34.4009176,39 C32.5050965,39 30.9674719,38.6859903 29.7073994,38.0409053 C28.450015,38.6859903 26.9123904,39 25.0158972,39 L24.8431833,39 C21.3015393,39 18.8277649,37.8381643 17.4809993,35.5445285 C17.2289848,35.8407898 16.9500887,36.0974585 16.6483433,36.310439 C14.9984883,37.4756879 12.6228315,37.4169817 9.71223192,36.1336379 C8.15579029,35.4537387 5.41723259,33.9683365 4.10003674,33.1444024 C2.21026391,31.9655009 0.413232429,30.5674753 0.0624282276,28.3489288 C-0.308537135,26.0204789 0.957583776,23.3138521 4.29492796,19.2986242 C8.33522463,14.4335224 15.7424352,6.05151229 16.0556052,5.69722747 L16.2303353,5.49926486 C18.900345,1.79941189 23.2544838,0 29.5293091,0 L29.8848176,0 C36.2100458,0 40.5823296,1.82603445 43.2442749,5.58118042 L43.3733063,5.69108381 C43.4465586,5.773682 50.991537,14.3038227 55.1393599,19.2993069 C58.47536,23.3152174 59.742153,26.0225268 59.3752198,28.3496114 Z M41.5775939,14.4199775 L41.5775939,14.5109316 C41.5775939,16.5794475 40.6280559,17.5854545 38.676302,17.5854545 C36.6665356,17.5854545 35.7176645,16.5794475 35.7176645,14.5109316 L35.7176645,14.4199775 C35.7176645,12.3507726 36.6665356,11.3454545 38.6189563,11.3454545 C40.6280559,11.3454545 41.5775939,12.3507726 41.5775939,14.4199775 Z" id="Imagotipo"></path>
        </g>
    </g>
</svg>